<svg width="49" height="33" viewBox="0 0 49 33" fill="none" xmlns="http://www.w3.org/2000/svg">
<path d="M0.408367 9.62863C0.147012 9.8184 0 10.1237 0 10.4331V10.4413C0 10.5733 0.0285857 10.7054 0.0816735 10.8332L4.7779 21.5757C4.98208 22.046 5.51296 22.277 6.003 22.1038C9.07392 20.9982 19.7078 17.4999 26.5929 19.381C26.5929 19.381 19.6915 19.7936 13.4435 24.7358C13.0923 25.0163 12.9738 25.5031 13.1576 25.9156C13.664 27.0707 14.6808 29.3974 15.2566 30.7093L16.0652 32.6276C16.2571 33.0814 16.8737 33.1309 17.1433 32.7184C18.6011 30.503 21.0554 29.3975 23.4158 28.428C25.8333 27.4379 28.357 26.7036 30.9297 26.2663C33.6658 25.796 36.4672 25.6722 39.2359 25.9198C39.6974 25.961 40.1262 25.6722 40.265 25.2267L42.3885 18.3868C42.511 17.9825 42.364 17.5411 42.021 17.2936C39.6606 15.5609 30.3009 9.75652 13.8437 12.0874C13.8437 12.0874 27.8915 3.94386 45.7167 12.8959C46.2599 13.1682 46.9092 12.8794 47.0929 12.3019L48.9592 6.27058C48.9837 6.17569 49 6.08081 49 5.9818V5.95705C49 5.61464 48.8121 5.28874 48.5018 5.11134C46.268 3.8366 38.6928 0 28.2713 0C20.2836 0 10.6298 2.25246 0.408367 9.62863" fill="url(#paint0_linear_120_1587)"/>
<defs>
<linearGradient id="paint0_linear_120_1587" x1="-24.5002" y1="16.4999" x2="6.07912" y2="61.9058" gradientUnits="userSpaceOnUse">
<stop stop-color="#FF4C1D"/>
<stop offset="1" stop-color="#9B0063"/>
</linearGradient>
</defs>
</svg>
