<svg width="92" height="30" viewBox="0 0 92 30" fill="none" xmlns="http://www.w3.org/2000/svg">
<path d="M11.3059 0H12.1223C14.9563 0.0616102 17.7442 1.2014 19.7465 3.21914C19.0072 3.97386 18.2525 4.69778 17.5286 5.45251C16.4042 4.43594 15.0488 3.65041 13.5701 3.37316C11.3829 2.91108 9.02635 3.32695 7.19344 4.57456C5.19111 5.88378 3.83569 8.10175 3.54304 10.4737C3.21958 12.8149 3.88189 15.2793 5.40675 17.0968C6.86999 18.8681 9.10336 19.9771 11.4137 20.0541C13.5701 20.1774 15.8189 19.515 17.3899 18.0056C18.6221 16.9428 19.192 15.3255 19.3769 13.7545C16.82 13.7545 14.2632 13.7699 11.7064 13.7545V10.5816H22.4728C23.0273 13.9855 22.2263 17.8208 19.6387 20.2544C17.9136 21.9795 15.5262 22.996 13.0926 23.1963C10.736 23.4273 8.30243 22.9806 6.20768 21.8408C3.69706 20.5008 1.69473 18.2366 0.708966 15.572C-0.215188 13.123 -0.23059 10.3505 0.631953 7.88611C1.41748 5.63734 2.92693 3.65041 4.86766 2.26418C6.73137 0.893349 8.99554 0.138623 11.3059 0Z" fill="white"/>
<path d="M73.0703 0.800903H76.3665V22.7958C75.2729 22.7958 74.1639 22.8112 73.0703 22.7804C73.0857 15.4641 73.0703 8.13252 73.0703 0.800903Z" fill="white"/>
<path fill-rule="evenodd" clip-rule="evenodd" d="M35.7191 9.68822C34.0402 8.47141 31.8377 8.04014 29.8045 8.42521C27.2477 8.87188 24.9835 10.7664 24.1826 13.2462C23.3817 15.5566 23.7359 18.2674 25.1992 20.239C26.493 22.0257 28.6185 23.1193 30.8057 23.2425C33.1931 23.3965 35.6421 22.3799 37.1361 20.4854C38.5224 18.7911 39.0461 16.4499 38.6302 14.309C38.3067 12.4607 37.244 10.7664 35.7191 9.68822ZM28.1102 12.7225C28.6647 12.0448 29.4349 11.5673 30.2666 11.3517C31.5912 11.0128 33.0545 11.3979 34.0556 12.3221C35.6113 13.7545 35.9039 16.2805 34.8874 18.1134C34.3021 19.1916 33.2393 20.0079 32.0225 20.2236C30.7133 20.4854 29.2962 20.0387 28.3567 19.0838C26.7086 17.4203 26.6162 14.5092 28.1102 12.7225Z" fill="white"/>
<path fill-rule="evenodd" clip-rule="evenodd" d="M52.7389 10.2581C50.9984 8.62547 48.457 7.97857 46.1312 8.42524C43.6206 8.85651 41.4026 10.6894 40.5555 13.0922C39.7084 15.4488 40.0318 18.2213 41.5259 20.239C42.8505 22.0719 45.053 23.1809 47.2864 23.2425C49.6276 23.3503 51.9996 22.3338 53.4628 20.4854C55.881 17.559 55.573 12.7996 52.7389 10.2581ZM44.4369 12.7072C44.9914 12.0448 45.7616 11.5674 46.5933 11.3517C47.9025 11.0129 49.3658 11.3825 50.3669 12.3067C51.938 13.7391 52.2306 16.2651 51.2295 18.1135C50.6442 19.1916 49.566 19.9926 48.3646 20.2236C47.0092 20.5008 45.5459 20.008 44.6064 19.0068C43.0199 17.3279 42.9583 14.463 44.4369 12.7072Z" fill="white"/>
<path fill-rule="evenodd" clip-rule="evenodd" d="M66.0159 8.8565C64.106 7.90155 61.7494 8.2096 59.9781 9.31858C57.8371 10.6278 56.4201 13.046 56.3739 15.5566C56.2815 17.7746 57.2672 20.008 58.9307 21.4558C60.5788 22.9036 62.9354 23.643 65.0763 23.0423C66.0621 22.8112 66.8784 22.1951 67.587 21.502C67.6332 22.9344 67.6332 24.5363 66.6782 25.7069C65.7849 26.8467 64.1984 27.1856 62.8276 26.9391C61.4567 26.6927 60.3632 25.6145 59.8241 24.3515C59.4622 24.5091 59.0981 24.6578 58.7352 24.8061C58.1403 25.0491 57.5486 25.2909 56.9746 25.5683C57.8987 27.7708 59.9781 29.5113 62.3655 29.8656C64.5989 30.2045 67.0787 29.6962 68.6959 28.0481C70.1746 26.554 70.6983 24.3823 70.7137 22.3337V8.74869C70.19 8.74098 69.6702 8.74098 69.1522 8.74098C68.6343 8.74098 68.1183 8.74098 67.6024 8.73328C67.5947 8.94892 67.5947 9.16456 67.5947 9.37827C67.5947 9.59198 67.5947 9.80376 67.587 10.0117C67.1095 9.56502 66.6166 9.11835 66.0159 8.8565ZM60.7482 12.6917C61.3489 11.9678 62.2269 11.4441 63.1664 11.2901C64.4448 11.0591 65.8003 11.5365 66.6474 12.5069C68.0182 14.078 68.1877 16.527 67.1711 18.3291C66.5704 19.3919 65.446 20.162 64.2292 20.2852C62.9354 20.4238 61.5954 19.8693 60.7636 18.8682C59.3004 17.1739 59.3004 14.4168 60.7482 12.6917Z" fill="white"/>
<path fill-rule="evenodd" clip-rule="evenodd" d="M87.3946 8.70245C85.0226 7.7937 82.1732 8.379 80.3248 10.1041C77.4446 12.7687 77.1981 17.7284 79.755 20.6856C81.3106 22.5648 83.8674 23.4889 86.2702 23.1963C88.442 22.996 90.4597 21.733 91.6611 19.9309C91.2376 19.646 90.814 19.3649 90.3904 19.0838C89.9668 18.8027 89.5433 18.5216 89.1197 18.2366C88.7809 18.6679 88.4266 19.1146 87.9799 19.4534C86.8555 20.3468 85.2537 20.5162 83.9136 20.0387C82.9587 19.7153 82.2502 18.9143 81.7881 18.0364C83.4593 17.3433 85.1266 16.654 86.7939 15.9648C88.4612 15.2755 90.1286 14.5862 91.7998 13.8931C91.0758 11.6905 89.6434 9.54959 87.3946 8.70245ZM81.249 15.5412C81.2336 14.6324 81.4492 13.7083 81.9729 12.9536C82.7893 11.7522 84.3141 10.9666 85.7774 11.2285C86.6861 11.3671 87.5795 11.8908 87.9491 12.7533C85.7157 13.6929 83.4824 14.617 81.249 15.5412Z" fill="white"/>
</svg>
