<svg width="112" height="17" viewBox="0 0 112 17" fill="none" xmlns="http://www.w3.org/2000/svg">
<path fill-rule="evenodd" clip-rule="evenodd" d="M105.924 7.34172V9.5682H107.009V11.9582C107.009 13.1266 106.011 13.148 106.011 13.148C104.797 13.148 104.842 12.0379 104.842 12.0379V3.77089C104.842 2.91924 105.92 2.8735 105.92 2.8735C106.954 2.8735 106.961 3.88938 106.961 3.88938V5.14642H110.944C111.074 2.69264 110.585 2.09877 110.585 2.09877C109.597 -0.120091 105.859 0.00117744 105.859 0.00117744C100.115 0.00117744 100.753 4.40841 100.753 4.40841V12.4017C100.873 16.4449 106.291 16.1315 106.617 16.1126L106.632 16.1118C109.149 15.8333 109.909 15.0329 109.909 15.0329C110.609 14.5132 110.789 13.7932 110.789 13.7932C110.99 13.3739 111.04 12.0379 111.04 12.0379V7.34172H105.924ZM60.89 7.54966C60.89 7.54966 59.8097 6.88164 59.1417 6.62317C59.1417 6.62317 57.0739 5.6648 56.6636 5.20883C56.6636 5.20883 55.8577 4.44935 56.3296 3.56721C56.3296 3.56721 56.5271 2.98997 57.3788 2.98997C57.3788 2.98997 58.4875 3.05095 58.4875 3.9622V5.24764H62.4609L62.454 3.35447C62.454 3.35447 62.7596 0.25416 57.7738 0.117647C57.7738 0.117647 53.8523 -0.140135 52.7276 1.97201C52.7276 1.97201 52.2862 2.44323 52.2862 4.08416V5.26981C52.2862 5.26981 52.2412 6.63772 52.9397 7.51917C52.9397 7.51917 53.3346 8.0971 54.3076 8.73462C54.3076 8.73462 56.2832 9.79832 57.4689 10.4074C57.4689 10.4074 58.6656 11.0907 58.5083 12.1779C58.5083 12.1779 58.4106 13.2943 57.2547 13.2486C57.2547 13.2486 56.198 13.2015 56.198 12.1066V10.8218H51.964V12.688C51.964 12.688 51.8455 16.2567 57.2859 16.2567C57.2859 16.2567 62.4845 16.362 62.727 12.5944V11.0748L62.7271 11.0743L62.7272 11.0726C62.7322 10.9926 62.8746 8.74408 60.89 7.54966ZM40.5476 0.561785L39.2171 8.8995H38.9059L37.635 0.636625H30.9979L30.6652 15.7356H34.595L34.6421 4.35921H34.9512L37.0343 15.7335H41.1685L43.2259 4.36337H43.4996L43.5945 15.7356H47.5451L47.1196 0.561785H40.5476ZM14.54 15.7182L17.1546 0.624775H23.8312L26.4451 15.7182H22.2153L20.6672 4.01544H20.3193L18.7705 15.7182H14.54ZM92.548 9.79827H92.7212L92.4371 0.564561H96.423V15.737H91.7337L87.5462 6.50601H87.3701L87.6058 15.737H83.6697V0.565947H88.5059L92.548 9.79827ZM74.0618 11.9568C74.0618 11.9568 74.1186 13.2021 72.9641 13.2021C72.9641 13.2021 71.75 13.2672 71.75 11.988L71.7376 0.574917H67.4204V11.8972C67.4204 11.8972 66.9776 16.1825 73.0251 16.1825C73.0251 16.1825 78.2805 16.2449 78.2805 12.094V0.57561H74.0618V11.9568ZM7.17651 6.62381C7.84522 6.8816 8.92416 7.54961 8.92416 7.54961C10.9317 8.75743 10.7664 11.0445 10.764 11.0771L10.764 11.0775V12.5958C10.5194 16.3634 5.32215 16.2581 5.32215 16.2581C-0.11829 16.2581 0.000206479 12.6893 0.000206479 12.6893V10.8218H4.23489V12.1072C4.23489 13.2021 5.29166 13.2492 5.29166 13.2492C6.44683 13.295 6.54453 12.1786 6.54453 12.1786C6.70322 11.09 5.50509 10.4081 5.50509 10.4081C4.31943 9.79896 2.34449 8.73527 2.34449 8.73527C1.37158 8.09774 0.976589 7.51981 0.976589 7.51981C0.277391 6.63837 0.323126 5.27046 0.323126 5.27046V4.0848C0.323126 2.44318 0.76385 1.97266 0.76385 1.97266C0.766638 1.9677 0.769979 1.96316 0.77338 1.95854C0.777586 1.95282 0.781883 1.94699 0.785332 1.94009C1.86497 0.28391 4.8842 0.121757 4.8842 0.121757C5.4351 0.094039 5.81069 0.118293 5.81069 0.118293C10.7945 0.254113 10.4909 3.35442 10.4909 3.35442L10.4986 5.24829H6.52374V3.96284C6.52374 3.0516 5.41431 2.99131 5.41431 2.99131C4.56336 2.99131 4.36656 3.56855 4.36656 3.56855C3.89396 4.44861 4.69987 5.20948 4.69987 5.20948C5.1101 5.66614 7.17651 6.62381 7.17651 6.62381Z" fill="white"/>
</svg>
