<svg width="18" height="18" viewBox="0 0 18 18" fill="none" xmlns="http://www.w3.org/2000/svg">
<path fill-rule="evenodd" clip-rule="evenodd" d="M13.1671 11.0006H12.3771L12.0971 10.7306C13.2971 9.33063 13.9171 7.42063 13.5771 5.39063C13.1071 2.61063 10.7871 0.390626 7.98713 0.0506256C3.75713 -0.469374 0.19713 3.09063 0.717129 7.32063C1.05713 10.1206 3.27713 12.4406 6.05713 12.9106C8.08713 13.2506 9.99713 12.6306 11.3971 11.4306L11.6671 11.7106V12.5006L15.9171 16.7506C16.3271 17.1606 16.9971 17.1606 17.4071 16.7506C17.8171 16.3406 17.8171 15.6706 17.4071 15.2606L13.1671 11.0006ZM7.16713 11.0006C4.67713 11.0006 2.66713 8.99063 2.66713 6.50063C2.66713 4.01063 4.67713 2.00063 7.16713 2.00063C9.65713 2.00063 11.6671 4.01063 11.6671 6.50063C11.6671 8.99063 9.65713 11.0006 7.16713 11.0006Z" fill="#C3CAD9"/>
</svg>
