<svg width="18" height="18" viewBox="0 0 18 18" fill="none" xmlns="http://www.w3.org/2000/svg">
<path fill-rule="evenodd" clip-rule="evenodd" d="M8.45 2.55C8.64 2.74 8.95 2.76 9.17 2.59C10.3 1.69 11.65 1.2 13 1.2C14.35 1.2 15.7 1.69 16.84 2.59C17.05 2.76 17.36 2.74 17.56 2.55L17.6 2.5C17.82 2.28 17.81 1.91 17.57 1.7C16.24 0.57 14.62 0 13 0C11.38 0 9.76 0.57 8.43 1.7C8.19 1.91 8.17 2.27 8.4 2.5L8.45 2.55ZM10.15 3.31C9.9 3.51 9.89 3.89 10.11 4.11L10.15 4.15C10.35 4.35 10.65 4.35 10.87 4.19C11.5 3.71 12.25 3.5 13 3.5C13.75 3.5 14.5 3.71 15.13 4.18C15.35 4.35 15.66 4.34 15.85 4.14L15.89 4.1C16.12 3.87 16.1 3.5 15.85 3.3C15.02 2.66 14.01 2.3 13 2.3C11.99 2.3 10.98 2.66 10.15 3.31ZM16 10H14V7C14 6.45 13.55 6 13 6C12.45 6 12 6.45 12 7V10H2C0.9 10 0 10.9 0 12V16C0 17.1 0.9 18 2 18H16C17.1 18 18 17.1 18 16V12C18 10.9 17.1 10 16 10ZM5 15H3V13H5V15ZM8.5 15H6.5V13H8.5V15ZM12 15H10V13H12V15Z" fill="#C3CAD9"/>
</svg>
