<svg width="20" height="14" viewBox="0 0 20 14" fill="none" xmlns="http://www.w3.org/2000/svg">
<path fill-rule="evenodd" clip-rule="evenodd" d="M18 0H2C0.9 0 0.01 0.9 0.01 2L0 12C0 13.1 0.9 14 2 14H18C19.1 14 20 13.1 20 12V2C20 0.9 19.1 0 18 0ZM9 3H11V5H9V3ZM9 6H11V8H9V6ZM6 3H8V5H6V3ZM6 6H8V8H6V6ZM5 8H3V6H5V8ZM5 5H3V3H5V5ZM13 12H7C6.45 12 6 11.55 6 11C6 10.45 6.45 10 7 10H13C13.55 10 14 10.45 14 11C14 11.55 13.55 12 13 12ZM14 8H12V6H14V8ZM14 5H12V3H14V5ZM17 8H15V6H17V8ZM17 5H15V3H17V5Z" fill="#C3CAD9"/>
</svg>
