<svg width="92" height="30" viewBox="0 0 92 30" fill="none" xmlns="http://www.w3.org/2000/svg">
<path d="M11.406 0H12.2224C15.0564 0.0616102 17.8443 1.2014 19.8466 3.21914C19.1073 3.97386 18.3526 4.69778 17.6287 5.45251C16.5043 4.43594 15.1488 3.65041 13.6702 3.37316C11.483 2.91108 9.12645 3.32695 7.29354 4.57456C5.29121 5.88378 3.93578 8.10175 3.64314 10.4737C3.31968 12.8149 3.98199 15.2793 5.50684 17.0968C6.97009 18.8681 9.20346 19.9771 11.5138 20.0541C13.6702 20.1774 15.919 19.515 17.49 18.0056C18.7222 16.9428 19.2921 15.3255 19.477 13.7545C16.9201 13.7545 14.3633 13.7699 11.8065 13.7545V10.5816H22.5729C23.1274 13.9855 22.3264 17.8208 19.7388 20.2544C18.0137 21.9795 15.6263 22.996 13.1927 23.1963C10.8361 23.4273 8.40253 22.9806 6.30778 21.8408C3.79716 20.5008 1.79483 18.2366 0.809064 15.572C-0.11509 13.123 -0.130493 10.3505 0.732051 7.88611C1.51758 5.63734 3.02703 3.65041 4.96776 2.26418C6.83147 0.893349 9.09564 0.138623 11.406 0Z" fill="white"/>
<path d="M73.1703 0.800903H76.4664V22.7958C75.3729 22.7958 74.2639 22.8112 73.1703 22.7804C73.1857 15.4641 73.1703 8.13252 73.1703 0.800903Z" fill="white"/>
<path fill-rule="evenodd" clip-rule="evenodd" d="M35.8191 9.68822C34.1402 8.47141 31.9376 8.04014 29.9045 8.42521C27.3477 8.87188 25.0835 10.7664 24.2826 13.2462C23.4816 15.5566 23.8359 18.2674 25.2991 20.239C26.593 22.0257 28.7185 23.1193 30.9057 23.2425C33.2931 23.3965 35.7421 22.3799 37.2361 20.4854C38.6224 18.7911 39.146 16.4499 38.7302 14.309C38.4067 12.4607 37.3439 10.7664 35.8191 9.68822ZM28.2102 12.7225C28.7647 12.0448 29.5348 11.5673 30.3666 11.3517C31.6912 11.0128 33.1544 11.3979 34.1556 12.3221C35.7113 13.7545 36.0039 16.2805 34.9873 18.1134C34.402 19.1916 33.3393 20.0079 32.1225 20.2236C30.8133 20.4854 29.3962 20.0387 28.4567 19.0838C26.8086 17.4203 26.7162 14.5092 28.2102 12.7225Z" fill="white"/>
<path fill-rule="evenodd" clip-rule="evenodd" d="M52.8389 10.2581C51.0984 8.62541 48.557 7.97851 46.2312 8.42518C43.7206 8.85645 41.5026 10.6894 40.6555 13.0922C39.8083 15.4487 40.1318 18.2212 41.6258 20.2389C42.9505 22.0718 45.153 23.1808 47.3864 23.2424C49.7276 23.3503 52.0996 22.3337 53.5628 20.4854C55.981 17.5589 55.673 12.7995 52.8389 10.2581ZM44.5369 12.7071C45.0914 12.0448 45.8615 11.5673 46.6933 11.3517C48.0025 11.0128 49.4657 11.3825 50.4669 12.3066C52.038 13.7391 52.3306 16.2651 51.3295 18.1134C50.7442 19.1916 49.666 19.9925 48.4646 20.2235C47.1091 20.5008 45.6459 20.0079 44.7063 19.0067C43.1199 17.3279 43.0583 14.463 44.5369 12.7071Z" fill="white"/>
<path fill-rule="evenodd" clip-rule="evenodd" d="M66.1159 8.85644C64.206 7.90148 61.8494 8.20954 60.0781 9.31852C57.9371 10.6277 56.5201 13.0459 56.4739 15.5566C56.3815 17.7745 57.3672 20.0079 59.0307 21.4557C60.6788 22.9036 63.0354 23.6429 65.1763 23.0422C66.1621 22.8112 66.9784 22.1951 67.6869 21.5019C67.7331 22.9344 67.7331 24.5362 66.7782 25.7068C65.8848 26.8466 64.2984 27.1855 62.9275 26.9391C61.5567 26.6926 60.4631 25.6144 59.924 24.3514C59.5622 24.509 59.1981 24.6577 58.8352 24.806C58.2403 25.049 57.6485 25.2908 57.0746 25.5682C57.9987 27.7708 60.0781 29.5113 62.4655 29.8655C64.6988 30.2044 67.1786 29.6961 68.7959 28.048C70.2746 26.554 70.7983 24.3822 70.8137 22.3337V8.74862C70.29 8.74092 69.7701 8.74092 69.2522 8.74092C68.7343 8.74092 68.2183 8.74092 67.7023 8.73322C67.6946 8.94886 67.6946 9.16449 67.6946 9.3782C67.6946 9.59192 67.6946 9.8037 67.6869 10.0116C67.2095 9.56496 66.7166 9.11829 66.1159 8.85644ZM60.8482 12.6917C61.4489 11.9678 62.3268 11.4441 63.2664 11.29C64.5448 11.059 65.9002 11.5365 66.7474 12.5068C68.1182 14.0779 68.2876 16.5269 67.2711 18.329C66.6704 19.3918 65.546 20.1619 64.3292 20.2851C63.0354 20.4238 61.6953 19.8693 60.8636 18.8681C59.4004 17.1738 59.4004 14.4168 60.8482 12.6917Z" fill="white"/>
<path fill-rule="evenodd" clip-rule="evenodd" d="M87.4947 8.70245C85.1227 7.7937 82.2733 8.379 80.4249 10.1041C77.5447 12.7687 77.2982 17.7284 79.855 20.6856C81.4107 22.5648 83.9675 23.4889 86.3703 23.1963C88.5421 22.996 90.5598 21.733 91.7612 19.9309C91.3377 19.646 90.9141 19.3649 90.4905 19.0838C90.0669 18.8027 89.6434 18.5216 89.2198 18.2366C88.8809 18.6679 88.5267 19.1146 88.08 19.4534C86.9556 20.3468 85.3538 20.5162 84.0137 20.0387C83.0588 19.7153 82.3503 18.9143 81.8882 18.0364C83.5594 17.3433 85.2267 16.654 86.894 15.9648C88.5613 15.2755 90.2287 14.5862 91.8999 13.8931C91.1759 11.6905 89.7435 9.54959 87.4947 8.70245ZM81.3491 15.5412C81.3337 14.6324 81.5493 13.7083 82.073 12.9536C82.8894 11.7522 84.4142 10.9666 85.8774 11.2285C86.7862 11.3671 87.6795 11.8908 88.0492 12.7533C85.8158 13.6929 83.5825 14.617 81.3491 15.5412Z" fill="white"/>
</svg>
